<?xml version="1.0" encoding="utf-8"?>
<!-- Generator: Adobe Illustrator 18.0.0, SVG Export Plug-In . SVG Version: 6.00 Build 0)  -->
<!DOCTYPE svg PUBLIC "-//W3C//DTD SVG 1.1//EN" "http://www.w3.org/Graphics/SVG/1.1/DTD/svg11.dtd">
<svg version="1.1" id="Слой_1" xmlns="http://www.w3.org/2000/svg" xmlns:xlink="http://www.w3.org/1999/xlink" x="0px" y="0px"
	 viewBox="0 0 140.3 40" enable-background="new 0 0 140.3 40" xml:space="preserve">
<g>
	<path fill="#2A86C7" d="M11.1,8.2c0,2,0,3.9-1.5,5.5c-1.1,1.1-2.4,1.6-4.1,1.6c-1.6,0-3-0.6-4.1-1.6C0,12.2,0,9.9,0,8.3V7
		c0-3,0.3-4.2,1.5-5.4C2.5,0.6,3.9,0,5.6,0c1.6,0,3,0.6,4.1,1.6s1.5,2.5,1.5,4.9V8.2z M7.4,3.4C7,2.9,6.3,2.6,5.6,2.6
		c-0.8,0-1.4,0.3-1.9,0.8C3,4.2,2.9,5.6,2.9,7.4v0.8c0,1.6,0,3,0.7,3.7c0.5,0.5,1.1,0.8,1.9,0.8c0.8,0,1.4-0.3,1.9-0.8
		c0.6-0.7,0.7-1.4,0.7-4.5C8.2,4.9,8,4.1,7.4,3.4z"/>
	<path fill="#2A86C7" d="M14.2,15.2v-15h2.9v7.1L22,0.1h3.5l-5.1,7.1l5.6,8h-3.6l-5.3-7.9v7.9H14.2z"/>
	<path fill="#2A86C7" d="M35.7,15.2V8.9h-5.1v6.3h-2.9v-15h2.9v6.1h5.1V0.1h2.9v15H35.7z"/>
	<path fill="#2A86C7" d="M50.7,15.2l-0.9-2.7h-5.3l-0.9,2.7h-3.1l5.5-15h2.3l5.5,15H50.7z M47.2,4.6L45.3,10H49L47.2,4.6z"/>
	<path fill="#2A86C7" d="M60.6,15.2v-15h2.9v7.1l4.9-7.1h3.5l-5.1,7.1l5.6,8h-3.6l-5.3-7.9v7.9H60.6z"/>
	<path fill="#2A86C7" d="M82.6,15.2l-0.9-2.7h-5.3l-0.9,2.7h-3.1l5.5-15h2.3l5.5,15H82.6z M79.1,4.6L77.2,10h3.7L79.1,4.6z"/>
	<path fill="#2A86C7" d="M95.6,15.2V2.7H92v4.4c0,6.3-1.5,8.1-4.7,8.1h-1.2v-2.6h0.4c1.5,0,2.6-0.9,2.6-5.6V0.1h9.4v15H95.6z"/>
	<path fill="#2A86C7" d="M102,15.2v-15h9.9v2.6h-7v3.5h5.9v2.6H105v3.7h7v2.6H102z"/>
	<path fill="#2A86C7" d="M124.8,8.3c0.7,0.7,0.9,1.5,0.9,2.6c0,2.6-1.8,4.3-4.6,4.3h-6.3v-15h6c2.8,0,4.6,1.6,4.6,4.1
		c0,1.4-0.6,2.5-1.9,3.2C124.2,7.8,124.5,7.9,124.8,8.3z M120.6,6.2c1.2,0,1.9-0.7,1.9-1.7s-0.7-1.7-1.9-1.7h-2.9v3.5H120.6z
		 M120.8,12.6c1.2,0,2-0.7,2-1.9c0-1.1-0.8-1.8-2-1.8h-3.1v3.7H120.8z"/>
	<path fill="#2A86C7" d="M137.3,15.2l-0.9-2.7H131l-0.9,2.7h-3.1l5.5-15h2.3l5.5,15H137.3z M133.8,4.6l-1.9,5.5h3.7L133.8,4.6z"/>
</g>
<g>
	<path fill="#2A86C7" d="M4.6,39.9H0.4V31h4.1c1.6,0,2.6,0.9,2.6,2.3c0,1-0.5,1.6-1.4,2c1,0.4,1.6,1.1,1.6,2.2
		C7.3,38.9,6.3,39.9,4.6,39.9z M4.3,32.1H1.7v2.7h2.6c1,0,1.6-0.5,1.6-1.3C5.9,32.6,5.3,32.1,4.3,32.1z M4.4,35.8H1.7v2.9h2.7
		c1,0,1.6-0.6,1.6-1.5S5.4,35.8,4.4,35.8z"/>
	<path fill="#2A86C7" d="M24.6,39.9v-9.8L21,37.9h-1.2l-3.6-7.8v9.8h-1.4V27h1.4l4.2,9.1l4.1-9.1h1.4v12.9H24.6z"/>
	<path fill="#2A86C7" d="M35.2,39c-0.7,0.7-1.5,1-2.6,1s-1.9-0.4-2.6-1c-0.8-0.8-1.1-1.8-1.1-3.6c0-1.7,0.3-2.8,1.1-3.5
		c0.7-0.7,1.5-1,2.6-1c1,0,1.9,0.4,2.6,1c0.8,0.8,1.1,1.8,1.1,3.5C36.3,37.2,35.9,38.2,35.2,39z M34.2,32.7c-0.4-0.4-1-0.7-1.6-0.7
		c-0.6,0-1.2,0.2-1.6,0.7c-0.5,0.5-0.7,1.3-0.7,2.8c0,1.4,0.2,2.2,0.7,2.8c0.4,0.4,1,0.7,1.6,0.7s1.2-0.2,1.6-0.7
		c0.5-0.5,0.7-1.3,0.7-2.7C34.9,34,34.8,33.2,34.2,32.7z"/>
	<path fill="#2A86C7" d="M44.1,39.7c-0.4,0.2-0.9,0.3-1.5,0.3c-2.5,0-4-1.7-4-4.6c0-2.8,1.5-4.6,4-4.6c0.6,0,1.1,0.1,1.5,0.3
		c0.5,0.2,0.8,0.4,1.4,1.1L44.5,33c-0.5-0.5-0.7-0.7-1-0.8c-0.3-0.1-0.6-0.2-1-0.2c-1.8,0-2.7,1.2-2.7,3.4c0,2.2,0.9,3.4,2.7,3.4
		c0.4,0,0.7-0.1,1-0.2c0.4-0.2,0.6-0.3,1.1-0.8l0.9,0.9C44.8,39.3,44.5,39.5,44.1,39.7z"/>
	<path fill="#2A86C7" d="M48,39.9V31h1.3v4.3l3.9-4.3h1.6l-4,4.2l4.4,4.7h-1.7l-4.2-4.6v4.6H48z"/>
	<path fill="#2A86C7" d="M61.2,39.9H57V31h4.1c1.6,0,2.6,0.9,2.6,2.3c0,1-0.5,1.6-1.4,2c1,0.4,1.6,1.1,1.6,2.2
		C63.9,38.9,62.9,39.9,61.2,39.9z M60.9,32.1h-2.6v2.7h2.6c1,0,1.6-0.5,1.6-1.3C62.4,32.6,61.9,32.1,60.9,32.1z M61,35.8h-2.7v2.9
		H61c1,0,1.6-0.6,1.6-1.5S62,35.8,61,35.8z"/>
	<path fill="#2A86C7" d="M67.5,35.8c0,0.8,0.1,1.2,0.3,1.6c0.4,1,1.2,1.5,2.4,1.5c0.4,0,0.8-0.1,1.1-0.2c0.4-0.2,0.6-0.3,1.1-0.8
		l0.9,0.8c-0.7,0.6-1,0.9-1.5,1.1c-0.5,0.2-1.1,0.3-1.7,0.3c-2.6,0-3.9-1.6-3.9-4.6c0-2.8,1.4-4.5,3.7-4.5s3.7,1.6,3.7,4.3v0.6H67.5
		z M72.1,33.6c-0.3-1-1.1-1.6-2.2-1.6c-0.9,0-1.7,0.5-2.1,1.3c-0.2,0.4-0.2,0.7-0.3,1.5h4.7C72.2,34.1,72.2,33.9,72.1,33.6z"/>
</g>
</svg>
