<?xml version="1.0" encoding="utf-8"?>
<!-- Generator: Adobe Illustrator 18.1.0, SVG Export Plug-In . SVG Version: 6.00 Build 0)  -->
<svg version="1.1" id="Слой_1" xmlns="http://www.w3.org/2000/svg" xmlns:xlink="http://www.w3.org/1999/xlink" x="0px" y="0px"
	 viewBox="0 0 2428 80" enable-background="new 0 0 2428 80" xml:space="preserve">
<line fill="none" stroke="#81C3EB" stroke-linecap="round" stroke-linejoin="round" stroke-miterlimit="10" x1="937.5" y1="26.9" x2="954.6" y2="43"/>
<line fill="none" stroke="#81C3EB" stroke-linecap="round" stroke-linejoin="round" stroke-miterlimit="10" x1="907.8" y1="50.6" x2="930.5" y2="73.3"/>
<g>
	<path fill="#2A85C7" d="M409.2,13.2l0.5-0.5c-7.2-7.2-16.6-10.8-26-10.8c-9.4,0-18.8,3.6-26,10.8c-7.4,7.4-11.3,17.5-11.3,27.4
		c0,6.3,1.6,12.6,4.8,18c0.1,0.2,0.3,0.3,0.5,0.3c0.2,0,0.4,0,0.6-0.2l9.6-9.6c1.6-1.6,3.7-2.4,5.9-2.4c2.1,0,4.3,0.8,5.9,2.4
		c1.6,1.6,2.4,3.7,2.4,5.9c0,2.1-0.8,4.3-2.4,5.9l-9.6,9.6c-0.2,0.2-0.2,0.4-0.2,0.6c0,0.2,0.2,0.4,0.3,0.5c5.5,3.2,11.7,4.8,18,4.8
		c9.9,0,20-3.9,27.4-11.3c7.2-7.2,10.8-16.6,10.8-26c0-9.4-3.6-18.8-10.8-26L409.2,13.2l-0.5,0.5c6.9,6.9,10.4,15.9,10.4,25
		c0,9.1-3.4,18.1-10.4,25c-7.1,7.1-16.8,10.9-26.4,10.9c-6.1,0-12.1-1.5-17.3-4.6l-0.4,0.6l0.5,0.5l9.6-9.6c1.9-1.9,2.8-4.4,2.8-6.9
		c0-2.5-0.9-5-2.8-6.9c-1.9-1.9-4.4-2.8-6.9-2.8c-2.5,0-5,0.9-6.9,2.8l-9.6,9.6l0.5,0.5l0.6-0.4c-3.1-5.2-4.6-11.3-4.6-17.3
		c0-9.6,3.7-19.3,10.9-26.4c6.9-6.9,15.9-10.3,25-10.4c9,0,18.1,3.4,25,10.4L409.2,13.2"/>
	<path fill="#81C3EB" d="M370.9,19.4L370.9,19.4 M363.9,19.4c-1,1-1.4,2.2-1.4,3.5c0,1.3,0.5,2.5,1.4,3.5c1,1,2.2,1.4,3.5,1.4
		c1.3,0,2.5-0.5,3.5-1.4l0,0c1-1,1.4-2.2,1.4-3.5c0-1.3-0.5-2.5-1.4-3.5c-1-1-2.2-1.4-3.5-1.4C366.1,18,364.9,18.5,363.9,19.4
		L363.9,19.4 M367.4,29.2L367.4,29.2c-1.6,0-3.2-0.6-4.5-1.8c-1.2-1.2-1.8-2.8-1.8-4.4c0-1.6,0.6-3.2,1.8-4.5l0,0
		c1.2-1.2,2.8-1.8,4.4-1.8h0c1.6,0,3.2,0.6,4.5,1.8l0,0c1.2,1.2,1.8,2.8,1.8,4.5c0,1.6-0.6,3.2-1.8,4.4l0,0
		C370.6,28.6,369,29.2,367.4,29.2"/>
	<path fill="#81C3EB" d="M403.5,26.8L403.5,26.8 M396,19.4c-1,1-1.4,2.2-1.4,3.5c0,1.3,0.5,2.5,1.4,3.5l0,0c1,1,2.2,1.4,3.4,1.4
		c1.3,0,2.5-0.5,3.5-1.4c0.9-1,1.4-2.2,1.4-3.5c0-1.3-0.5-2.5-1.4-3.5c-1-1-2.2-1.4-3.5-1.4C398.2,18,397,18.5,396,19.4 M399.5,29.2
		L399.5,29.2c-1.6,0-3.2-0.6-4.4-1.8l0,0c-1.2-1.2-1.9-2.8-1.9-4.4c0-1.6,0.6-3.2,1.8-4.4l0.5,0.5l-0.5-0.5c1.2-1.2,2.8-1.8,4.4-1.8
		h0c1.6,0,3.2,0.6,4.5,1.8c1.2,1.2,1.8,2.8,1.8,4.4c0,1.6-0.6,3.2-1.8,4.4l0,0C402.7,28.6,401.1,29.2,399.5,29.2"/>
	<path fill="#81C3EB" d="M383.4,22.5c-3.5,0-6.3-2.8-6.3-6.3c0-3.5,2.8-6.3,6.3-6.3c3.5,0,6.3,2.8,6.3,6.3v0
		C389.7,19.7,386.9,22.5,383.4,22.5v-0.7v-0.7c2.7,0,4.9-2.2,4.9-4.9c0-2.7-2.2-4.9-4.9-4.9c-1.4,0-2.6,0.5-3.5,1.4
		c-0.9,0.9-1.4,2.1-1.4,3.5c0,2.7,2.2,4.9,4.9,4.9v0.7V22.5"/>
	<path fill="#81C3EB" d="M396,58.4c1,1,2.2,1.4,3.5,1.4c1.3,0,2.5-0.5,3.5-1.4c1-1,1.4-2.2,1.4-3.5c0-1.3-0.5-2.5-1.4-3.5
		c-1-1-2.2-1.4-3.5-1.4c-1.3,0-2.5,0.5-3.5,1.4c-1,1-1.4,2.2-1.4,3.5C394.6,56.2,395.1,57.5,396,58.4L396,58.4 M399.5,61.3
		L399.5,61.3c-1.6,0-3.2-0.6-4.5-1.8l0,0c-1.2-1.2-1.8-2.8-1.8-4.4c0-1.6,0.6-3.2,1.8-4.4c1.2-1.2,2.8-1.8,4.4-1.8h0
		c1.6,0,3.2,0.6,4.4,1.8c1.2,1.2,1.8,2.8,1.8,4.4c0,1.6-0.6,3.2-1.8,4.5l-0.5-0.5l0.5,0.5C402.7,60.7,401.1,61.3,399.5,61.3"/>
	<path fill="#81C3EB" d="M406.1,45.2c-3.5,0-6.3-2.8-6.3-6.3c0-3.5,2.8-6.3,6.3-6.3c3.5,0,6.3,2.8,6.3,6.3
		C412.4,42.4,409.6,45.2,406.1,45.2v-0.7v-0.7c2.7,0,4.9-2.2,4.9-4.9c0-2.7-2.2-4.9-4.9-4.9c-2.7,0-4.9,2.2-4.9,4.9
		c0,2.7,2.2,4.9,4.9,4.9v0.7V45.2"/>
</g>
<path fill="none" stroke="#2A85C7" stroke-linecap="round" stroke-linejoin="round" stroke-miterlimit="10" d="M74.9,40L74.9,40
	c0-2.3-0.5-4.3-1.2-5.7c0,0-7.3-16.5-1.6-23.4c2.3-2.3,3.3-5,2.2-6.1c-0.1-0.1-0.1-0.1-0.2-0.1l0,0c-1.1-1.1-3.8-0.1-6.1,2.2
	C61,12.5,44.5,5.2,44.5,5.2C43.1,4.5,41.1,4,38.8,4h0c-2.3,0-4.3,0.5-5.7,1.2c0,0-16.5,7.3-23.4,1.6c-2.3-2.3-5-3.3-6.1-2.2l0,0
	c-0.1,0-0.1,0.1-0.2,0.1c-1.1,1.1-0.1,3.8,2.2,6.1C11.2,17.8,4,34.3,4,34.3c-0.8,1.4-1.2,3.4-1.2,5.7c0,2.3,0.5,4.3,1.2,5.7
	c0,0,7.3,16.5,1.6,23.4c-2.3,2.3-3.3,5-2.2,6.1c0.1,0.1,0.1,0.1,0.2,0.1l0,0c1.1,1.1,3.8,0.1,6.1-2.2c6.9-5.7,23.4,1.6,23.4,1.6
	c1.4,0.8,3.4,1.2,5.7,1.2h0c2.3,0,4.3-0.5,5.7-1.2c0,0,16.5-7.3,23.4-1.6c2.3,2.3,5,3.3,6.1,2.2l0,0c0.1,0,0.1-0.1,0.2-0.1
	c1.1-1.1,0.1-3.8-2.2-6.1c-5.7-6.9,1.6-23.4,1.6-23.4C74.4,44.3,74.9,42.2,74.9,40z"/>
<rect x="15" y="16.1" fill="none" stroke="#81C3EB" stroke-linecap="round" stroke-linejoin="round" stroke-miterlimit="10" width="47.7" height="47.7"/>
<rect x="175" y="2.8" fill="none" stroke="#2A85C7" stroke-linecap="round" stroke-linejoin="round" stroke-miterlimit="10" width="75" height="75"/>
<path fill="none" stroke="#81C3EB" stroke-linecap="round" stroke-linejoin="round" stroke-miterlimit="10" d="M100.5,38.9h33.6
	c4.9,0,8.8-3.9,8.8-8.8c0-4.9-3.9-8.8-8.8-8.8c-3.3,0-6.3,1.8-7.8,4.8c-0.6,1.2-1,2.6-1,4c0,1.5,0.4,3,1.1,4.3"/>
<path fill="none" stroke="#81C3EB" stroke-linecap="round" stroke-linejoin="round" stroke-miterlimit="10" d="M97.3,46h47.9
	c4.9,0,8.8-3.9,8.8-8.8c0-4.2-3-7.8-7.1-8.6"/>
<path fill="none" stroke="#81C3EB" stroke-linecap="round" stroke-linejoin="round" stroke-miterlimit="10" d="M102.9,53.2h37.6
	c2.3,0,4.6-0.9,6.2-2.6"/>
<circle fill="none" stroke="#2A85C7" stroke-linecap="round" stroke-linejoin="round" stroke-miterlimit="10" cx="122.9" cy="40.2" r="37"/>
<line fill="none" stroke="#2A85C7" stroke-linecap="round" stroke-linejoin="round" stroke-miterlimit="10" x1="96.6" y1="14.1" x2="148.9" y2="66.5"/>
<path fill="none" stroke="#81C3EB" stroke-linecap="round" stroke-linejoin="round" stroke-miterlimit="10" d="M813.4,41.9H847
	c4.9,0,8.8-3.9,8.8-8.8c0-4.9-3.9-8.8-8.8-8.8c-3.3,0-6.3,1.8-7.8,4.8c-0.6,1.2-1,2.6-1,4"/>
<path fill="none" stroke="#81C3EB" stroke-linecap="round" stroke-linejoin="round" stroke-miterlimit="10" d="M821.5,49h36.7
	c4.9,0,8.8-3.9,8.8-8.8c0-4.2-3-7.8-7.1-8.6"/>
<circle fill="none" stroke="#2A85C7" stroke-linecap="round" stroke-linejoin="round" stroke-miterlimit="10" cx="841.4" cy="40.4" r="37"/>
<line fill="none" stroke="#81C3EB" stroke-linecap="round" stroke-linejoin="round" stroke-miterlimit="10" x1="204" y1="19.1" x2="184.9" y2="38.3"/>
<line fill="none" stroke="#81C3EB" stroke-linecap="round" stroke-linejoin="round" stroke-miterlimit="10" x1="199.4" y1="34" x2="182.9" y2="50.4"/>
<polygon fill="none" stroke="#2A85C7" stroke-linecap="round" stroke-linejoin="round" stroke-miterlimit="10" points="1065.4,60.3 
	1027.8,78.2 1027.8,27.5 1065.4,9.6 "/>
<polygon fill="none" stroke="#81C3EB" stroke-linecap="round" stroke-linejoin="round" stroke-miterlimit="10" points="1052.4,57.7 
	1014.9,75.6 1014.9,24.9 1052.4,7 "/>
<polygon fill="none" stroke="#81C3EB" stroke-linecap="round" stroke-linejoin="round" stroke-miterlimit="10" points="1040.8,55.1 
	1003.3,73 1003.3,22.3 1040.8,4.4 "/>
<polygon fill="none" stroke="#2A85C7" stroke-linecap="round" stroke-linejoin="round" stroke-miterlimit="10" points="1027.9,52.5 
	990.4,70.4 990.4,19.7 1027.9,1.8 "/>
<path fill="none" stroke="#2A85C7" stroke-linecap="round" stroke-linejoin="round" stroke-miterlimit="10" d="M297.9,78.5l-0.4-0.1
	c-0.3-0.1-8-2.6-15.7-11.9c-12.7-15.5-15.4-37.5-15.4-53.3v-1.2l1.2,0c0.2,0,18.7-0.7,29.5-9.8l0.8-0.7l0.8,0.7
	c10.8,9.1,29.3,9.7,29.5,9.8l1.2,0v1.2c0,15.8-2.7,37.8-15.4,53.3c-7.7,9.4-15.4,11.8-15.7,11.9L297.9,78.5z"/>
<path fill="none" stroke="#81C3EB" stroke-linecap="round" stroke-linejoin="round" stroke-miterlimit="10" d="M299,11.4v57.2
	c0,0,15.3-4.8,21.1-28.9c1.4-5.7,2.2-12.5,2.2-20.5C322.3,19.1,308,18.7,299,11.4z"/>
<line fill="none" stroke="#81C3EB" stroke-linecap="round" stroke-linejoin="round" stroke-miterlimit="10" x1="1117.7" y1="3.6" x2="1117.7" y2="76.9"/>
<g>
	<path fill="none" stroke="#81C3EB" stroke-linecap="round" stroke-linejoin="round" stroke-miterlimit="10" d="M458,51.3
		c2.2-8.6,10-14.9,19.2-14.9c11,0,19.9,8.9,19.9,19.9c0,1.9-0.3,3.8-0.8,5.6"/>
</g>
<path fill="none" stroke="#2A85C7" stroke-linecap="round" stroke-linejoin="round" stroke-miterlimit="10" d="M512.7,27.1h-21.3
	L478.3,4.4h-27.1l-13.5,23.5l13.5,23.5h6.8c-0.4,1.6-0.7,3.3-0.7,5c0,11,8.9,19.9,19.9,19.9c9,0,16.7-6,19.1-14.3h16.3V27.1z"/>
<line fill="none" stroke="#81C3EB" stroke-linecap="round" stroke-linejoin="round" stroke-miterlimit="10" x1="458" y1="51.3" x2="477.6" y2="51.3"/>
<line fill="none" stroke="#81C3EB" stroke-linecap="round" stroke-linejoin="round" stroke-miterlimit="10" x1="491.4" y1="27.1" x2="477.6" y2="51.3"/>
<line fill="none" stroke="#81C3EB" stroke-linecap="round" stroke-linejoin="round" stroke-miterlimit="10" x1="496.3" y1="61.9" x2="477.6" y2="61.9"/>
<line fill="none" stroke="#81C3EB" stroke-linecap="round" stroke-linejoin="round" stroke-miterlimit="10" x1="477.6" y1="61.9" x2="477.6" y2="27.1"/>
<line fill="none" stroke="#81C3EB" stroke-linecap="round" stroke-linejoin="round" stroke-miterlimit="10" x1="477.6" y1="27.1" x2="491.4" y2="27.1"/>
<path fill="none" stroke="#2A85C7" stroke-linecap="round" stroke-linejoin="round" stroke-miterlimit="10" d="M544.7,13.1
	c2.8-1.5,5.4-3.1,7.8-5.2c2.2-2,4.5-4.3,7.5-4.8c3.2-0.5,6.5,0.5,9.6,0.7c3.3,0.2,6.6-0.5,10-0.5c3.2,0,5.5,1.5,7.8,3.7
	c2.4,2.3,4.7,4.4,7.6,6.1c2.5,1.5,5.5,2.9,7,5.5c1.5,2.7,1.7,6,2.3,8.9c0.7,3.4,2.5,6.3,3.6,9.5c1.2,3.4,0.4,6.3-1.1,9.4
	c-1.5,3.1-2.7,6.1-3.5,9.5c-0.7,3-1.2,6.3-3.7,8.4c-1.8,0.6-3.4,1.4-4.6,2.9c-2.1,1.1-4.1,2.3-5.9,3.8c-1.9,1.6-3.6,3.4-5.7,4.7
	c-4.2,2.5-9.3,0.4-13.8,0.4c-4.5-0.1-9.6,1.8-13.7-0.8c-2-1.3-3.6-3.1-5.4-4.7c-1.8-1.7-3.9-3-6.1-4.3c-2.3-1.3,1.3,0.8,0,0
	c-3.1-1.8-5.9-3.5-6.9-7.1c-1.1-3.7-1.3-7.4-2.8-11c-1.4-3.4-3.5-6.9-2.7-10.7c0.9-3.9,3.4-7.1,4.4-11"/>
<path fill="none" stroke="#81C3EB" stroke-linecap="round" stroke-linejoin="round" stroke-miterlimit="10" d="M551.9,19.5
	c8.4-7.5,21-9.1,30.9-3.8c8.7,4.6,14.4,13.7,14.7,23.5c0.3,9.9-5,19.3-13.5,24.3c-9.3,5.5-21.5,4.9-30.2-1.6
	c-9.8-7.3-13.7-20.6-9.2-32"/>
<path fill="none" stroke="#81C3EB" stroke-linecap="round" stroke-linejoin="round" stroke-miterlimit="10" d="M559.6,26.6
	c8.8-7,22.1-3.5,26.4,6.9c3.9,9.5-1.9,20.6-11.9,23c-5.7,1.3-11.9-0.4-16.1-4.7c-4.5-4.6-6-11.4-3.9-17.5"/>
<circle fill="none" stroke="#81C3EB" stroke-linecap="round" stroke-linejoin="round" stroke-miterlimit="10" cx="570.2" cy="40" r="7.4"/>
<path fill="#2A85C7" d="M758.2,68.4l-0.5-0.4l-7,7.7l-7-7.7c-0.2-0.2-0.4-0.3-0.7-0.2l-10,3.2l-2.2-10.2c-0.1-0.3-0.3-0.4-0.5-0.5
	L720.1,58l3.2-10c0.1-0.2,0-0.5-0.2-0.7l-7.7-7l7.7-7c0.2-0.2,0.3-0.4,0.2-0.7l-3.2-10l10.2-2.2c0.3-0.1,0.4-0.3,0.5-0.5L733,9.7
	l10,3.2c0.2,0.1,0.5,0,0.7-0.2l7-7.7l7,7.7c0.2,0.2,0.4,0.3,0.7,0.2l10-3.2l2.2,10.2c0.1,0.3,0.3,0.4,0.5,0.5l10.2,2.2l-3.2,10
	c-0.1,0.2,0,0.5,0.2,0.7l7.7,7l-7.7,7c-0.2,0.2-0.3,0.4-0.2,0.7l3.2,10l-10.2,2.2c-0.3,0.1-0.4,0.3-0.5,0.5l-2.2,10.2l-10-3.2
	c-0.2-0.1-0.5,0-0.7,0.2L758.2,68.4L758,69l10.6,3.4c0.2,0.1,0.4,0,0.5-0.1c0.2-0.1,0.3-0.2,0.3-0.4l2.3-10.5l10.5-2.3
	c0.2,0,0.3-0.2,0.4-0.3c0.1-0.2,0.1-0.4,0.1-0.5L779.5,48l7.9-7.2c0.1-0.1,0.2-0.3,0.2-0.5c0-0.2-0.1-0.4-0.2-0.5l-7.9-7.2l3.3-10.2
	c0.1-0.2,0-0.4-0.1-0.5c-0.1-0.2-0.2-0.3-0.4-0.3l-10.5-2.3l-2.3-10.5c0-0.2-0.2-0.3-0.3-0.4c-0.2-0.1-0.4-0.1-0.5-0.1l-10.2,3.3
	l-7.2-7.9c-0.1-0.1-0.3-0.2-0.5-0.2c-0.2,0-0.4,0.1-0.5,0.2l-7.2,7.9l-10.2-3.3c-0.2-0.1-0.4,0-0.5,0.1c-0.2,0.1-0.3,0.2-0.3,0.4
	l-2.3,10.5l-10.5,2.3c-0.2,0-0.3,0.2-0.4,0.3c-0.1,0.2-0.1,0.4-0.1,0.5l3.3,10.2l-7.9,7.2c-0.1,0.1-0.2,0.3-0.2,0.5
	c0,0.2,0.1,0.4,0.2,0.5l7.9,7.2l-3.3,10.2c-0.1,0.2,0,0.4,0.1,0.5c0.1,0.2,0.2,0.3,0.4,0.3l10.5,2.3l2.3,10.5c0,0.2,0.2,0.3,0.3,0.4
	c0.2,0.1,0.4,0.1,0.5,0.1l10.2-3.3l7.2,7.9c0.1,0.1,0.3,0.2,0.5,0.2c0.2,0,0.4-0.1,0.5-0.2l7.5-8.3L758.2,68.4L758,69L758.2,68.4"/>
<path fill="#81C3EB" d="M750.8,61.8c-11.9,0-21.5-9.6-21.5-21.5s9.6-21.5,21.5-21.5c11.9,0,21.5,9.6,21.5,21.5
	C772.2,52.2,762.6,61.8,750.8,61.8v-0.7v-0.7c5.6,0,10.6-2.3,14.2-5.9c3.6-3.6,5.9-8.7,5.9-14.2c0-5.6-2.3-10.6-5.9-14.2
	c-3.6-3.6-8.7-5.9-14.2-5.9c-5.6,0-10.6,2.3-14.2,5.9c-3.6,3.6-5.9,8.7-5.9,14.2c0,5.6,2.3,10.6,5.9,14.2c3.6,3.6,8.7,5.9,14.2,5.9
	v0.7V61.8 M750.8,61.8L750.8,61.8"/>
<line fill="none" stroke="#81C3EB" stroke-linecap="round" stroke-linejoin="round" stroke-miterlimit="10" x1="837.1" y1="56" x2="851.8" y2="56"/>
<line fill="none" stroke="#2A85C7" stroke-linecap="round" stroke-linejoin="round" stroke-miterlimit="10" x1="867.4" y1="14.4" x2="815.1" y2="66.7"/>
<path fill="none" stroke="#2A85C7" stroke-linecap="round" stroke-linejoin="round" stroke-miterlimit="10" d="M1117.7,77l-0.4-0.1
	c-0.3-0.1-7.7-2.5-15.1-11.5c-12.2-14.9-14.8-36.1-14.8-51.2V13l1.2,0c0.2,0,17.9-0.6,28.3-9.4l0.8-0.6l0.8,0.6
	c10.4,8.7,28.1,9.4,28.3,9.4l1.2,0v1.2c0,15.2-2.6,36.4-14.8,51.2c-7.4,9-14.8,11.4-15.1,11.5L1117.7,77z"/>
<rect x="1235.4" y="4.3" fill="none" stroke="#2A85C7" stroke-linecap="round" stroke-linejoin="round" stroke-miterlimit="10" width="32" height="74"/>
<g>
	<path fill="#FFFFFF" d="M1304.2,40.5c0,2.2-1.8,4-4,4H1249c-2.2,0-4-1.8-4-4v-8.1c0-2.2,1.8-4,4-4h51.3c2.2,0,4,1.8,4,4V40.5z"/>
	<path fill="none" stroke="#81C3EB" stroke-linecap="round" stroke-linejoin="round" stroke-miterlimit="10" d="M1304.2,40.5
		c0,2.2-1.8,4-4,4H1249c-2.2,0-4-1.8-4-4v-8.1c0-2.2,1.8-4,4-4h51.3c2.2,0,4,1.8,4,4V40.5z"/>
</g>
<path fill="none" stroke="#2A85C7" stroke-linecap="round" stroke-linejoin="round" stroke-miterlimit="10" d="M1324.5,48.2
	 M1418.6,44.5c-0.2-7.8-9.6-39.3-10-40.6c-0.1-0.2-0.2-0.4-0.5-0.5c-0.2-0.1-0.5,0-0.8,0.1l-14.9,10.8c-4.6-1.4-9.4-2.1-14.1-2.1
	c-4.9,0-9.7,0.7-14.1,2.1l-15-10.7c-0.2-0.2-0.5-0.2-0.8-0.2c-0.2,0.1-0.4,0.3-0.5,0.5c-0.4,1.3-9.8,32.8-10,40.6 M1341.2,57.9
	c6.5,11.9,20.9,19.5,37,19.5c16.1,0,30.5-7.6,37-19.5"/>
<path fill="#FFFFFF" stroke="#81C3EB" stroke-linecap="round" stroke-linejoin="round" stroke-miterlimit="10" d="M1364.8,44
	c-2.6,0-4.7-2.1-4.7-4.7c0-2.6,2.1-4.7,4.7-4.7c2.6,0,4.7,2.1,4.7,4.7C1369.4,41.8,1367.3,44,1364.8,44z"/>
<path fill="#FFFFFF" stroke="#81C3EB" stroke-linecap="round" stroke-linejoin="round" stroke-miterlimit="10" d="M1384.6,54.2
	l-6.4,3.9l-6.4-3.8c-0.4-0.5-0.8-1.2-0.8-1.8c0-2.4,3.2-4.2,7.1-4.2s7.1,2,7.1,4.2C1385.3,53,1385.1,53.6,1384.6,54.2z"/>
<path fill="#FFFFFF" stroke="#81C3EB" stroke-linecap="round" stroke-linejoin="round" stroke-miterlimit="10" d="M1391.6,44
	c-2.6,0-4.7-2.1-4.7-4.7c0-2.6,2.1-4.7,4.7-4.7c2.6,0,4.7,2.1,4.7,4.7C1396.3,41.8,1394.2,44,1391.6,44z"/>
<line fill="#FFFFFF" stroke="#81C3EB" stroke-linecap="round" stroke-linejoin="round" stroke-miterlimit="10" x1="1359.3" y1="49.9" x2="1321.7" y2="49.9"/>
<line fill="#FFFFFF" stroke="#81C3EB" stroke-linecap="round" stroke-linejoin="round" stroke-miterlimit="10" x1="1360.2" y1="54.8" x2="1318.9" y2="59.8"/>
<line fill="#FFFFFF" stroke="#81C3EB" stroke-linecap="round" stroke-linejoin="round" stroke-miterlimit="10" x1="1397.2" y1="49.9" x2="1434.7" y2="49.9"/>
<line fill="#FFFFFF" stroke="#81C3EB" stroke-linecap="round" stroke-linejoin="round" stroke-miterlimit="10" x1="1396.3" y1="54.8" x2="1437.6" y2="59.8"/>
<line fill="none" stroke="#2A85C7" stroke-linecap="round" stroke-linejoin="round" stroke-miterlimit="10" x1="1452.4" y1="7.7" x2="1549" y2="7.7"/>
<line fill="none" stroke="#2A85C7" stroke-linecap="round" stroke-linejoin="round" stroke-miterlimit="10" x1="1452.4" y1="20.3" x2="1549" y2="20.3"/>
<line fill="none" stroke="#2A85C7" stroke-linecap="round" stroke-linejoin="round" stroke-miterlimit="10" x1="1452.4" y1="33" x2="1549" y2="33"/>
<line fill="none" stroke="#2A85C7" stroke-linecap="round" stroke-linejoin="round" stroke-miterlimit="10" x1="1452.4" y1="45.7" x2="1549" y2="45.7"/>
<line fill="none" stroke="#2A85C7" stroke-linecap="round" stroke-linejoin="round" stroke-miterlimit="10" x1="1452.4" y1="58.3" x2="1549" y2="58.3"/>
<line fill="none" stroke="#2A85C7" stroke-linecap="round" stroke-linejoin="round" stroke-miterlimit="10" x1="1452.4" y1="71" x2="1549" y2="71"/>
<path fill="#FFFFFF" stroke="#81C3EB" stroke-linecap="round" stroke-linejoin="round" stroke-miterlimit="10" d="M1560.1,4.3v67.4
	c-1.2,0.3-2.2,1.3-2.2,2.7v4h5.4v-4c0,0,0.2-2.7-2.7-2.7"/>
<line fill="none" stroke="#81C3EB" stroke-linecap="round" stroke-linejoin="round" stroke-miterlimit="10" x1="655.2" y1="59.1" x2="667.1" y2="59.1"/>
<line fill="none" stroke="#81C3EB" stroke-linecap="round" stroke-linejoin="round" stroke-miterlimit="10" x1="650.1" y1="53.7" x2="672.2" y2="53.7"/>
<path fill="none" stroke="#2A85C7" stroke-linecap="round" stroke-linejoin="round" stroke-miterlimit="10" d="M694.5,41.7
	c0,6.3-6.4,11.3-6.9,10.4c-4.6-9.5-8.7-8.4-12.5-6.4c-3.3,1.7-3.6,7.6-2.9,7.9c0.5,0.2,8.2-0.1,8.2-0.1c0,0.9-0.1,5.6-0.1,5.6
	c-2.2,0-13.2,0-13.2,0c-0.2,8.2,8.1,5.1,8,6c-0.8,7.5-8,3.7-8,3.7c-1,9.2-6.1,9-6.1,9s-5,0.3-6-9c0,0-7.1,3.8-7.9-3.7
	c-0.1-0.9,8.2,2.2,8-6c0,0-11,0-13.2,0c0,0-0.1-4.7-0.1-5.6c0,0,7.7,0.3,8.2,0.1c0.8-0.3,0.4-6.2-2.9-7.9c-3.8-2-7.9-3.2-12.5,6.4
	c-0.5,0.9-6.9-4.1-6.9-10.4c0-5,5.4-11.5,11.3-11.2c3.7,0.2,7.7,1.5,10.3,4.5c4.6,5.3,5,13.9,5.4,18.9l2.9,0.1
	c0.5-3.3-1.1-12.5-1.2-14.4c-0.1-3.8-6.1-8.2-6.8-17.7c-0.7-9.7,9-18.2,11.3-18.9c2.5,0.7,12,9.2,11.3,18.9
	c-0.6,9.5-6.5,14-6.7,17.7c-0.1,1.8-1.7,11.1-1.2,14.4l2.9-0.1c0.4-5,0.8-13.5,5.4-18.9c2.6-3,6.6-4.3,10.3-4.5
	C689.1,30.2,694.5,36.7,694.5,41.7z"/>
<path fill="none" stroke="#2A85C7" stroke-linecap="round" stroke-linejoin="round" stroke-miterlimit="10" d="M920.4,43.2
	c-0.6,0.5-1.3,0.8-2,1.3c-0.7,0.4-1.3,0.8-2,1.2c-1.3,0.8-2.7,1.6-4.1,2.3l-2.1,1.1l-2.1,1.1l0,0c0,0,0,0-0.1,0c0,0-0.1,0-0.1,0.1
	c-0.1,0-0.1,0.1-0.2,0.1c0,0,0,0,0,0l-5.1,5.1c-0.3,0.3-0.5,0.7-0.5,1.1s0.2,0.8,0.5,1.1l20.5,20.5c0.3,0.3,0.7,0.5,1.1,0.5
	c0.4,0,0.8-0.2,1.1-0.5l5.1-5.1c0,0,0,0,0,0c0,0,0.1-0.1,0.1-0.2c0,0,0.1-0.1,0.1-0.1c0,0,0,0,0-0.1l0,0c0.7-1.4,1.4-2.8,2.2-4.2
	c0.8-1.4,1.5-2.8,2.3-4.1c0.4-0.7,0.8-1.3,1.2-2c0.4-0.6,0.8-1.4,1.3-1.9l1.3-1.8c0.5-0.6,1-1.2,1.6-1.8l0.1-0.1l0-0.1l0,0l0.2-0.2
	l0.4-0.4l0.8-0.8l1.7-1.7l3.4-3.4l6.5-6.5c0.4-0.2,0.7-0.5,0.8-0.9c0.1-0.4,0.1-0.8-0.1-1.1l-1.1-8.7l5.8-7.7l0,0
	c0.3-0.5,0.3-1.1-0.1-1.5l-1.9-1.9c-0.4-0.4-1.1-0.5-1.5-0.1l0,0l-7.7,5.7l-9.1-1.1c-0.5-0.1-1,0.1-1.3,0.5l-6.8,6.8l-3.4,3.4
	l-1.7,1.7c-0.6,0.6-1.1,1.2-1.7,1.7c-0.6,0.5-1.1,1-1.7,1.4L920.4,43.2z"/>
<path fill="none" stroke="#81C3EB" stroke-linecap="round" stroke-linejoin="round" stroke-miterlimit="10" d="M962.6,27.9
	c0.1,0,0.1,0,0.2,0c2.6,0,4.9-1.2,6.3-3.2c1.5-2.2,1.6-4.9,0.5-7.6c-2.1-5-7.1-6.2-14.7-8c-1.6-0.4-3.4-0.8-5.2-1.3
	c-2.7-0.7-5.3-0.5-7.2,0.6c-1.3,0.8-2.2,2-2.6,3.3c-0.5,2.1,0.3,4.5,2,5.9c1.7,1.4,4.1,1.6,6.4,0.4c2.3-1.1,3.6-0.9,3.8-0.7
	c0.1,0.1,0.1,0.6-0.4,1.6c-0.3,0.6-0.1,1.4,0.5,1.7"/>
<path fill="none" stroke="#81C3EB" stroke-linecap="round" stroke-linejoin="round" stroke-miterlimit="10" d="M927,19.1
	c1.3,0,2.7-0.4,3.8-1.3c0.3-0.2,0.7-0.4,1.1-0.7c1.7-1,3.9-2.3,3.8-4.7c-0.1-2.4-1.2-3.2-2.4-4.1c-0.5-0.4-1-0.7-1.5-1.3
	c-1.4-1.4-3.1-2.1-4.9-2.1c-2.8,0-5.8,2-6.2,6.4c-0.2,2.3,0.4,4.4,1.8,5.8C923.7,18.4,925.3,19.1,927,19.1z"/>
<g>
	
		<circle fill="none" stroke="#81C3EB" stroke-linecap="round" stroke-linejoin="round" stroke-miterlimit="10" cx="1194" cy="69.9" r="3.5"/>
	<path fill="none" stroke="#2A85C7" stroke-linecap="round" stroke-linejoin="round" stroke-miterlimit="10" d="M1207.8,3.4H1181
		c-3,0-5.5,2.5-5.5,5.5v63c0,3,2.5,5.5,5.5,5.5h26.8c3,0,5.5-2.5,5.5-5.5v-63C1213.3,5.8,1210.8,3.4,1207.8,3.4z"/>
</g>
<path fill="none" stroke="#81C3EB" stroke-linecap="round" stroke-linejoin="round" stroke-miterlimit="10" d="M1208.2,62.2h-27.5
	V13.5h27.5V62.2z"/>
<line fill="none" stroke="#81C3EB" stroke-linecap="round" stroke-linejoin="round" stroke-miterlimit="10" x1="1189.9" y1="8.2" x2="1198.1" y2="8.2"/>
<path fill="none" stroke="#2B85C7" stroke-linejoin="round" stroke-miterlimit="10" d="M1610.4,3l0.5,6.7c0,0,0.5,0,0.5,0
	c0.6,0,0.8,0.3,0.8,0.9l-0.6,1.6c0,0,1.5,20.4,2.7,27.9h1c0.6,0,1,0.5,1,1.1v2.2c0,0,0,0.1,0,0.1c0,0,0.1,0.4,0.2,0.9
	c0,0,2.3,8.3,4,11.6l1.5,0c0.6,0,1.1,0.5,1.1,1.1l0,2.2c0,0.6,0,1.1,0,1.1c0,0,9.4,13.6,9.4,13.6c0.3,0.4,0.5,0.7,0.5,1.1v1.1
	c0,0.5-0.4,0.8-0.8,0.8h-8.3c-0.5,0-0.8-0.4-0.8-0.8v-1.7c-0.9-5.5-6.4-11.1-12.8-11.1h-0.1c-6.4,0-12,5.5-12.8,11.1v1.7
	c0,0.5-0.4,0.8-0.8,0.8h-8.3c-0.5,0-0.8-0.4-0.8-0.8v-0.9c0-0.5,0.2-0.7,0.5-1.1c0,0,9.3-13.9,9.3-13.9c0,0,0-0.5,0-1.1v-2.1
	c0-0.6,0.5-1.1,1.1-1.1l1.5,0c1.7-3.4,4-11.6,4-11.6c0.1-0.4,0.2-0.8,0.2-0.9c0,0,0-0.1,0-0.1l0-2.2c0-0.6,0.5-1.1,1-1.1h1
	c1.2-7.5,2.7-27.9,2.7-27.9l-0.6-1.6c0-0.6,0.2-0.9,0.8-0.9c0,0,0.5,0,0.5,0l0.4-6.7"/>
<g opacity="0.5">
	<g>
		<defs>
			<rect id="SVGID_1_" x="1605.3" y="45.2" width="9.9" height="10.9"/>
		</defs>
		<clipPath id="SVGID_2_">
			<use xlink:href="#SVGID_1_"  overflow="visible"/>
		</clipPath>
		<path clip-path="url(#SVGID_2_)" fill="none" stroke="#2B85C7" stroke-linejoin="round" stroke-miterlimit="10" d="M1614,55.6
			c0.5,0,0.7-0.4,0.6-0.8l-2.3-8.3c-0.1-0.4-0.6-0.8-1-0.8h-2.1c-0.5,0-0.9,0.4-1,0.8l-2.3,8.3c-0.1,0.4,0.2,0.8,0.6,0.8H1614z"/>
	</g>
</g>
<g opacity="0.5">
	<g>
		<defs>
			<rect id="SVGID_3_" x="1905.9" y="24.2" width="54" height="29.6"/>
		</defs>
		<clipPath id="SVGID_4_">
			<use xlink:href="#SVGID_3_"  overflow="visible"/>
		</clipPath>
		<g clip-path="url(#SVGID_4_)">
			<path fill="#FAFAFA" d="M1918,35.5c-1.5,0-2.6-0.8-2.7-2.4h0.9c0.1,1.2,0.9,1.6,1.8,1.6c1,0,1.8-0.7,1.8-1.8
				c0-1.1-0.6-1.8-1.8-1.8h-0.2v-0.8h0.2c1.1,0,1.7-0.6,1.7-1.7c0-1.1-0.7-1.7-1.6-1.7c-1,0-1.6,0.6-1.7,1.6h-0.9
				c0.1-1.5,1.2-2.4,2.6-2.4c1.5,0,2.6,1,2.6,2.5c0,1-0.4,1.7-1.3,2.1c0.9,0.4,1.4,1.1,1.4,2.3C1920.7,34.6,1919.5,35.5,1918,35.5z"
				/>
			<path fill="#FAFAFA" d="M1924.9,35.5c-1.4,0-2.5-1-2.5-2.6v-4.3c0-1.5,1.1-2.6,2.5-2.6s2.5,1,2.5,2.6v4.3
				C1927.4,34.5,1926.3,35.5,1924.9,35.5z M1926.5,28.7c0-1-0.6-1.8-1.6-1.8s-1.6,0.8-1.6,1.8v4.2c0,1,0.6,1.8,1.6,1.8
				s1.6-0.8,1.6-1.8V28.7z"/>
			<path fill="#FAFAFA" d="M1936.6,35.4v-5.6h-2.3V32c0,2.7-0.9,3.4-2,3.4h-0.4v-0.8h0.2c0.6,0,1.4-0.2,1.4-2.9V29h4.1v6.4H1936.6z"
				/>
			<path fill="#FAFAFA" d="M1940.4,32.4c0,0.6,0.1,0.8,0.2,1.2c0.3,0.7,0.9,1.1,1.7,1.1c0.3,0,0.6-0.1,0.8-0.2
				c0.3-0.1,0.5-0.2,0.8-0.6l0.6,0.6c-0.5,0.5-0.7,0.6-1.1,0.8c-0.4,0.1-0.8,0.2-1.2,0.2c-1.9,0-2.8-1.1-2.8-3.3c0-2,1-3.2,2.6-3.2
				s2.6,1.2,2.6,3.1v0.4H1940.4z M1943.7,30.9c-0.2-0.7-0.8-1.2-1.6-1.2c-0.7,0-1.2,0.4-1.5,1c-0.1,0.3-0.2,0.5-0.2,1.1h3.4
				C1943.8,31.2,1943.8,31.1,1943.7,30.9z"/>
			<path fill="#FAFAFA" d="M1948.9,29.8v5.6h-0.9v-5.6h-2.2V29h5.2v0.8H1948.9z"/>
		</g>
		<g clip-path="url(#SVGID_4_)">
			<path fill="#FAFAFA" d="M1908.1,45.1v5.6h-0.9v-6.4h4.1v0.8H1908.1z"/>
			<path fill="#FAFAFA" d="M1916,50.7v-0.6c-0.3,0.3-0.5,0.4-0.7,0.5c-0.3,0.1-0.6,0.2-1.1,0.2c-1.5,0-2.3-0.7-2.3-1.9
				c0-1.2,0.8-1.9,2.2-1.9h1.9v-0.6c0-1-0.5-1.4-1.7-1.4c-0.4,0-0.7,0.1-1,0.2c-0.2,0.1-0.4,0.2-0.6,0.5l-0.6-0.6
				c0.3-0.4,0.5-0.5,0.8-0.7c0.4-0.2,0.8-0.3,1.4-0.3c1.7,0,2.6,0.7,2.6,2.1v4.4H1916z M1916,47.8h-1.8c-1,0-1.4,0.4-1.4,1.1
				c0,0.8,0.5,1.1,1.5,1.1c1.2,0,1.7-0.4,1.7-1.5V47.8z"/>
			<path fill="#FAFAFA" d="M1922,50.8c-0.4,0-0.7-0.1-1-0.2c-0.3-0.1-0.4-0.3-0.7-0.6v3.6h-0.9v-9.3h0.9v0.8
				c0.3-0.4,0.5-0.5,0.7-0.6c0.3-0.1,0.6-0.2,1-0.2c1.7,0,2.4,1,2.4,3.3C1924.3,49.8,1923.6,50.8,1922,50.8z M1921.8,45.1
				c-1.1,0-1.6,0.7-1.6,2.4c0,1.7,0.5,2.4,1.6,2.4c1.1,0,1.6-0.7,1.6-2.4C1923.4,45.8,1922.9,45.1,1921.8,45.1z"/>
			<path fill="#FAFAFA" d="M1930,50.7v-0.6c-0.3,0.3-0.5,0.4-0.7,0.5c-0.3,0.1-0.6,0.2-1.1,0.2c-1.5,0-2.3-0.7-2.3-1.9
				c0-1.2,0.8-1.9,2.2-1.9h1.9v-0.6c0-1-0.5-1.4-1.7-1.4c-0.4,0-0.7,0.1-1,0.2c-0.2,0.1-0.4,0.2-0.6,0.5l-0.6-0.6
				c0.3-0.4,0.5-0.5,0.8-0.7c0.4-0.2,0.8-0.3,1.4-0.3c1.7,0,2.6,0.7,2.6,2.1v4.4H1930z M1930,47.8h-1.8c-1,0-1.4,0.4-1.4,1.1
				c0,0.8,0.5,1.1,1.5,1.1c1.2,0,1.7-0.4,1.7-1.5V47.8z"/>
			<path fill="#FAFAFA" d="M1937.2,50.7v-2.9h-3.1v2.9h-0.9v-6.4h0.9V47h3.1v-2.7h0.9v6.4H1937.2z"/>
			<path fill="#FAFAFA" d="M1942.6,45.1v5.6h-0.9v-5.6h-2.2v-0.8h5.2v0.8H1942.6z"/>
			<path fill="#FAFAFA" d="M1950.3,50.7v-5l-3.3,5h-0.9v-6.4h0.9v4.9l3.3-4.9h0.9v6.4H1950.3z"/>
			<path fill="#FAFAFA" d="M1957.8,50.7v-5l-3.3,5h-0.9v-6.4h0.9v4.9l3.3-4.9h0.9v6.4H1957.8z"/>
		</g>
	</g>
</g>
<polygon fill="none" stroke="#FAFAFA" stroke-linejoin="round" stroke-miterlimit="10" points="1719.8,69.9 1712.1,78.3 
	1704.5,69.9 1693.6,73.3 1691.2,62.2 1680.1,59.8 1683.5,49 1675.1,41.3 1683.5,33.6 1680.1,22.8 1691.2,20.4 1693.6,9.3 
	1704.5,12.7 1712.1,4.3 1719.8,12.7 1730.6,9.3 1733.1,20.4 1744.2,22.8 1740.7,33.6 1749.1,41.3 1740.7,49 1744.2,59.8 
	1733.1,62.2 1730.6,73.3 "/>
<g opacity="0.5">
	<g>
		<defs>
			<rect id="SVGID_5_" x="1699" y="33.6" width="29.2" height="13.9"/>
		</defs>
		<clipPath id="SVGID_6_">
			<use xlink:href="#SVGID_5_"  overflow="visible"/>
		</clipPath>
		<g clip-path="url(#SVGID_6_)">
			<path fill="#FAFAFA" d="M1706.1,44.5l-4.8-7.3v7.3h-1v-9h0.9l4.8,7.2v-7.2h1v9H1706.1z"/>
			<path fill="#FAFAFA" d="M1710.1,41.6c0,1.4,0.6,2.2,1.8,2.2c0.7,0,1.1-0.2,1.6-0.7l0.6,0.5c-0.6,0.6-1.2,1-2.3,1
				c-1.7,0-2.7-1-2.7-3.2c0-2,1-3.2,2.6-3.2c1.6,0,2.6,1.2,2.6,3v0.4H1710.1z M1713.2,39.9c-0.2-0.6-0.8-0.9-1.5-0.9
				s-1.2,0.4-1.5,0.9c-0.1,0.3-0.2,0.5-0.2,1h3.3C1713.3,40.4,1713.3,40.2,1713.2,39.9z"/>
			<path fill="#FAFAFA" d="M1722.1,44.5h-0.9l-1.6-4.9l-1.6,4.9h-0.9l-2-6.3h1l1.4,5l1.6-5h0.8l1.7,5l1.4-5h1L1722.1,44.5z"/>
			<path fill="#FAFAFA" d="M1725.9,44.5v-1.1h1.1v1.1H1725.9z M1726.8,41.9h-0.8l-0.1-6.5h1.1L1726.8,41.9z"/>
		</g>
	</g>
</g>
<circle fill="none" stroke="#FAFAFA" stroke-linejoin="round" stroke-miterlimit="10" cx="1933.3" cy="40" r="37"/>
<polyline fill="none" stroke="#FAFAFA" stroke-linejoin="round" stroke-miterlimit="10" points="1816,78.3 1849.7,44.7 1849.7,27.5 
	1839.3,17 1821.8,17 1788.1,50.3 1816,78.3 "/>
<circle fill="none" stroke="#FAFAFA" stroke-linejoin="round" stroke-miterlimit="10" cx="1834.3" cy="32.9" r="6.8"/>
<g opacity="0.5">
	<g>
		<defs>
			<rect id="SVGID_7_" x="1828.7" y="4.3" width="32.3" height="32.7"/>
		</defs>
		<clipPath id="SVGID_8_">
			<use xlink:href="#SVGID_7_"  overflow="visible"/>
		</clipPath>
		<path clip-path="url(#SVGID_8_)" fill="none" stroke="#FAFAFA" stroke-linejoin="round" stroke-miterlimit="10" d="M1829.1,17.2
			c1.6-7.2,8-12.6,15.6-12.6c8.8,0,16,7.2,16,16c0,8.8-7.2,16-16,16c-6.5,0-12-3.8-14.5-9.3"/>
	</g>
</g>
<g opacity="0.5">
	<g>
		<defs>
			<rect id="SVGID_9_" x="2207.3" y="27" width="29" height="25.1"/>
		</defs>
		<clipPath id="SVGID_10_">
			<use xlink:href="#SVGID_9_"  overflow="visible"/>
		</clipPath>
		<g clip-path="url(#SVGID_10_)">
			<path fill="#FAFAFA" d="M2209.1,41.3v-1.5h6.3v1.5H2209.1z"/>
			<path fill="#FAFAFA" d="M2221.7,38.7c-1.8,0-3.1-1.2-3.1-3.1v-2.4c0-1.9,1.3-3.1,3.1-3.1c1.8,0,3.1,1.2,3.1,3.1v2.4
				C2224.8,37.5,2223.5,38.7,2221.7,38.7z M2223.5,33.3c0-1.2-0.6-2-1.8-2c-1.3,0-1.8,0.8-1.8,2v2.3c0,1.2,0.6,2,1.8,2
				c1.2,0,1.8-0.8,1.8-2V33.3z M2223.5,46.7h-1.4l7.7-16.4h1.4L2223.5,46.7z M2231.7,46.8c-1.8,0-3.1-1.2-3.1-3.1v-2.4
				c0-1.9,1.3-3.1,3.1-3.1c1.8,0,3.1,1.2,3.1,3.1v2.4C2234.8,45.6,2233.5,46.8,2231.7,46.8z M2233.5,41.4c0-1.2-0.6-2-1.8-2
				c-1.3,0-1.8,0.8-1.8,2v2.3c0,1.2,0.5,2,1.8,2c1.2,0,1.8-0.8,1.8-2V41.4z"/>
		</g>
	</g>
</g>
<circle fill="none" stroke="#FAFAFA" stroke-linejoin="round" stroke-miterlimit="10" cx="2223.7" cy="40.5" r="37"/>
<path fill="none" stroke="#FAFAFA" stroke-linejoin="round" stroke-miterlimit="10" d="M2164.4,74.6c0,1.2-1,2.1-2.1,2.1h-71
	c-1.2,0-2.1-1-2.1-2.1V12.5c0-1.2,1-2.1,2.1-2.1h71c1.2,0,2.1,1,2.1,2.1V74.6z"/>
<line fill="none" stroke="#FAFAFA" stroke-linejoin="round" stroke-miterlimit="10" x1="2102.7" y1="2.7" x2="2102.7" y2="17.7"/>
<line fill="none" stroke="#FAFAFA" stroke-linejoin="round" stroke-miterlimit="10" x1="2126.7" y1="2.7" x2="2126.7" y2="17.7"/>
<line fill="none" stroke="#FAFAFA" stroke-linejoin="round" stroke-miterlimit="10" x1="2150.7" y1="2.7" x2="2150.7" y2="17.7"/>
<circle fill="none" stroke="#FAFAFA" stroke-linejoin="round" stroke-miterlimit="10" cx="2105" cy="31.7" r="3.6"/>
<circle fill="none" stroke="#FAFAFA" stroke-linejoin="round" stroke-miterlimit="10" cx="2119.5" cy="31.7" r="3.6"/>
<circle fill="none" stroke="#FAFAFA" stroke-linejoin="round" stroke-miterlimit="10" cx="2134.4" cy="31.7" r="3.6"/>
<g opacity="0.5">
	<g>
		<defs>
			<rect id="SVGID_11_" x="2145.4" y="27.7" width="8.1" height="8.1"/>
		</defs>
		<clipPath id="SVGID_12_">
			<use xlink:href="#SVGID_11_"  overflow="visible"/>
		</clipPath>
		
			<circle clip-path="url(#SVGID_12_)" fill="none" stroke="#FAFAFA" stroke-linejoin="round" stroke-miterlimit="10" cx="2149.4" cy="31.7" r="3.6"/>
	</g>
</g>
<circle fill="none" stroke="#FAFAFA" stroke-linejoin="round" stroke-miterlimit="10" cx="2105" cy="46.7" r="3.6"/>
<circle fill="none" stroke="#FAFAFA" stroke-linejoin="round" stroke-miterlimit="10" cx="2119.5" cy="46.7" r="3.6"/>
<circle fill="none" stroke="#FAFAFA" stroke-linejoin="round" stroke-miterlimit="10" cx="2134.4" cy="46.7" r="3.6"/>
<g opacity="0.5">
	<g>
		<defs>
			<rect id="SVGID_13_" x="2145.4" y="42.7" width="8.1" height="8.1"/>
		</defs>
		<clipPath id="SVGID_14_">
			<use xlink:href="#SVGID_13_"  overflow="visible"/>
		</clipPath>
		
			<circle clip-path="url(#SVGID_14_)" fill="none" stroke="#FAFAFA" stroke-linejoin="round" stroke-miterlimit="10" cx="2149.4" cy="46.7" r="3.6"/>
	</g>
</g>
<circle fill="none" stroke="#FAFAFA" stroke-linejoin="round" stroke-miterlimit="10" cx="2105" cy="61.7" r="3.6"/>
<circle fill="none" stroke="#FAFAFA" stroke-linejoin="round" stroke-miterlimit="10" cx="2119.5" cy="61.7" r="3.6"/>
<circle fill="none" stroke="#FAFAFA" stroke-linejoin="round" stroke-miterlimit="10" cx="2134.4" cy="61.7" r="3.6"/>
<path fill="none" stroke="#FAFAFA" stroke-linejoin="round" stroke-miterlimit="10" d="M2065.6,74.1c0,1.4-1.2,2.6-2.6,2.6h-68.8
	c-1.4,0-2.6-1.2-2.6-2.6V5.3c0-1.4,1.2-2.6,2.6-2.6h68.8c1.4,0,2.6,1.2,2.6,2.6V74.1z"/>
<g opacity="0.5">
	<g>
		<defs>
			<rect id="SVGID_15_" x="2028.2" y="2.7" width="0.9" height="74"/>
		</defs>
		<clipPath id="SVGID_16_">
			<use xlink:href="#SVGID_15_"  overflow="visible"/>
		</clipPath>
		
			<line clip-path="url(#SVGID_16_)" fill="none" stroke="#FAFAFA" stroke-linejoin="round" stroke-miterlimit="10" x1="2028.6" y1="2.7" x2="2028.6" y2="76.7"/>
	</g>
</g>
<g opacity="0.5">
	<g>
		<defs>
			<rect id="SVGID_17_" x="1991.6" y="39.2" width="74" height="0.9"/>
		</defs>
		<clipPath id="SVGID_18_">
			<use xlink:href="#SVGID_17_"  overflow="visible"/>
		</clipPath>
		
			<line clip-path="url(#SVGID_18_)" fill="none" stroke="#FAFAFA" stroke-linejoin="round" stroke-miterlimit="10" x1="1991.6" y1="39.7" x2="2065.6" y2="39.7"/>
	</g>
</g>
<line fill="none" stroke="#FAFAFA" stroke-linejoin="round" stroke-miterlimit="10" x1="2004.1" y1="20.5" x2="2016.6" y2="20.5"/>
<line fill="none" stroke="#FAFAFA" stroke-linejoin="round" stroke-miterlimit="10" x1="2041.4" y1="20.5" x2="2053.9" y2="20.5"/>
<line fill="none" stroke="#FAFAFA" stroke-linejoin="round" stroke-miterlimit="10" x1="2041.4" y1="57.8" x2="2053.9" y2="57.8"/>
<line fill="none" stroke="#FAFAFA" stroke-linejoin="round" stroke-miterlimit="10" x1="2010.4" y1="14.3" x2="2010.4" y2="26.7"/>
<line fill="none" stroke="#FAFAFA" stroke-linejoin="round" stroke-miterlimit="10" x1="2006" y1="53.3" x2="2014.8" y2="62.2"/>
<line fill="none" stroke="#FAFAFA" stroke-linejoin="round" stroke-miterlimit="10" x1="2014.8" y1="53.3" x2="2006" y2="62.2"/>
<circle fill="none" stroke="#FAFAFA" stroke-linejoin="round" stroke-miterlimit="10" cx="2047.6" cy="52.4" r="2.1"/>
<circle fill="none" stroke="#FAFAFA" stroke-linejoin="round" stroke-miterlimit="10" cx="2047.6" cy="63.4" r="2.1"/>
<path fill="none" stroke="#FAFAFA" stroke-linejoin="round" stroke-miterlimit="10" d="M2294.4,3.4h-7.6c-1.4,0-2.5,1.2-2.5,2.5
	v69.1c0,1.4,1.2,2.5,2.5,2.5h44.6c1.4,0,2.5-1.2,2.5-2.5V5.8c0.1-1.4-1-2.5-2.3-2.5h-7.6H2294.4z"/>
<g opacity="0.5">
	<g>
		<defs>
			<rect id="SVGID_19_" x="2292.9" y="62" width="6.8" height="6.8"/>
		</defs>
		<clipPath id="SVGID_20_">
			<use xlink:href="#SVGID_19_"  overflow="visible"/>
		</clipPath>
		<path clip-path="url(#SVGID_20_)" fill="none" stroke="#FAFAFA" stroke-linejoin="round" stroke-miterlimit="10" d="M2296.3,68.4
			c-1.7,0-3-1.3-3-3c0-1.7,1.3-3,3-3c1.7,0,3,1.3,3,3C2299.3,67.1,2298,68.4,2296.3,68.4z"/>
	</g>
</g>
<g opacity="0.5">
	<g>
		<defs>
			<rect id="SVGID_21_" x="2292.9" y="48.6" width="6.8" height="6.8"/>
		</defs>
		<clipPath id="SVGID_22_">
			<use xlink:href="#SVGID_21_"  overflow="visible"/>
		</clipPath>
		<path clip-path="url(#SVGID_22_)" fill="none" stroke="#FAFAFA" stroke-linejoin="round" stroke-miterlimit="10" d="M2296.3,55
			c-1.7,0-3-1.3-3-3c0-1.7,1.3-3,3-3c1.7,0,3,1.3,3,3C2299.3,53.6,2298,55,2296.3,55z"/>
	</g>
</g>
<g opacity="0.5">
	<g>
		<defs>
			<rect id="SVGID_23_" x="2292.9" y="35.2" width="6.8" height="6.8"/>
		</defs>
		<clipPath id="SVGID_24_">
			<use xlink:href="#SVGID_23_"  overflow="visible"/>
		</clipPath>
		<path clip-path="url(#SVGID_24_)" fill="none" stroke="#FAFAFA" stroke-linejoin="round" stroke-miterlimit="10" d="M2296.3,41.6
			c-1.7,0-3-1.3-3-3c0-1.7,1.3-3,3-3c1.7,0,3,1.3,3,3C2299.3,40.3,2298,41.6,2296.3,41.6z"/>
	</g>
</g>
<g opacity="0.5">
	<g>
		<defs>
			<rect id="SVGID_25_" x="2305.8" y="62" width="6.8" height="6.8"/>
		</defs>
		<clipPath id="SVGID_26_">
			<use xlink:href="#SVGID_25_"  overflow="visible"/>
		</clipPath>
		<path clip-path="url(#SVGID_26_)" fill="none" stroke="#FAFAFA" stroke-linejoin="round" stroke-miterlimit="10" d="M2309.2,68.4
			c-1.7,0-3-1.3-3-3c0-1.7,1.3-3,3-3c1.7,0,3,1.3,3,3C2312.2,67.1,2310.8,68.4,2309.2,68.4z"/>
	</g>
</g>
<g opacity="0.5">
	<g>
		<defs>
			<rect id="SVGID_27_" x="2305.8" y="48.6" width="6.8" height="6.8"/>
		</defs>
		<clipPath id="SVGID_28_">
			<use xlink:href="#SVGID_27_"  overflow="visible"/>
		</clipPath>
		<path clip-path="url(#SVGID_28_)" fill="none" stroke="#FAFAFA" stroke-linejoin="round" stroke-miterlimit="10" d="M2309.2,55
			c-1.7,0-3-1.3-3-3c0-1.7,1.3-3,3-3c1.7,0,3,1.3,3,3C2312.2,53.6,2310.8,55,2309.2,55z"/>
	</g>
</g>
<g opacity="0.5">
	<g>
		<defs>
			<rect id="SVGID_29_" x="2305.8" y="35.2" width="6.8" height="6.8"/>
		</defs>
		<clipPath id="SVGID_30_">
			<use xlink:href="#SVGID_29_"  overflow="visible"/>
		</clipPath>
		<path clip-path="url(#SVGID_30_)" fill="none" stroke="#FAFAFA" stroke-linejoin="round" stroke-miterlimit="10" d="M2309.2,41.6
			c-1.7,0-3-1.3-3-3c0-1.7,1.3-3,3-3c1.7,0,3,1.3,3,3C2312.2,40.3,2310.8,41.6,2309.2,41.6z"/>
	</g>
</g>
<g opacity="0.5">
	<g>
		<defs>
			<rect id="SVGID_31_" x="2318.6" y="62" width="6.8" height="6.8"/>
		</defs>
		<clipPath id="SVGID_32_">
			<use xlink:href="#SVGID_31_"  overflow="visible"/>
		</clipPath>
		<path clip-path="url(#SVGID_32_)" fill="none" stroke="#FAFAFA" stroke-linejoin="round" stroke-miterlimit="10" d="M2322,68.4
			c-1.7,0-3-1.3-3-3c0-1.7,1.3-3,3-3c1.7,0,3,1.3,3,3C2325,67.1,2323.7,68.4,2322,68.4z"/>
	</g>
</g>
<g opacity="0.5">
	<g>
		<defs>
			<rect id="SVGID_33_" x="2318.6" y="48.6" width="6.8" height="6.8"/>
		</defs>
		<clipPath id="SVGID_34_">
			<use xlink:href="#SVGID_33_"  overflow="visible"/>
		</clipPath>
		<path clip-path="url(#SVGID_34_)" fill="none" stroke="#FAFAFA" stroke-linejoin="round" stroke-miterlimit="10" d="M2322,55
			c-1.7,0-3-1.3-3-3c0-1.7,1.3-3,3-3c1.7,0,3,1.3,3,3C2325,53.6,2323.7,55,2322,55z"/>
	</g>
</g>
<g opacity="0.5">
	<g>
		<defs>
			<rect id="SVGID_35_" x="2318.6" y="35.2" width="6.8" height="6.8"/>
		</defs>
		<clipPath id="SVGID_36_">
			<use xlink:href="#SVGID_35_"  overflow="visible"/>
		</clipPath>
		<path clip-path="url(#SVGID_36_)" fill="none" stroke="#FAFAFA" stroke-linejoin="round" stroke-miterlimit="10" d="M2322,41.6
			c-1.7,0-3-1.3-3-3c0-1.7,1.3-3,3-3c1.7,0,3,1.3,3,3C2325,40.3,2323.7,41.6,2322,41.6z"/>
	</g>
</g>
<g opacity="0.5">
	<g>
		<defs>
			<rect id="SVGID_37_" x="2288.7" y="12.9" width="40.9" height="11.6"/>
		</defs>
		<clipPath id="SVGID_38_">
			<use xlink:href="#SVGID_37_"  overflow="visible"/>
		</clipPath>
		<path clip-path="url(#SVGID_38_)" fill="none" stroke="#FAFAFA" stroke-linejoin="round" stroke-miterlimit="10" d="M2329.2,23
			c0,0.6-0.5,1.2-1.2,1.2h-37.8c-0.6,0-1.2-0.5-1.2-1.2v-8.5c0-0.6,0.5-1.2,1.2-1.2h37.6c0.6,0,1.2,0.5,1.2,1.2V23H2329.2z"/>
	</g>
</g>
<g opacity="0.5">
	<g>
		<defs>
			<rect id="SVGID_39_" x="2377.7" y="28.1" width="18.7" height="24.5"/>
		</defs>
		<clipPath id="SVGID_40_">
			<use xlink:href="#SVGID_39_"  overflow="visible"/>
		</clipPath>
		<g clip-path="url(#SVGID_40_)">
			<path fill="#FAFAFA" d="M2382.2,39.5c-1.8,0-3-1.2-3-3v-2.4c0-1.8,1.3-3,3-3c1.7,0,3,1.2,3,3v2.4
				C2385.2,38.4,2383.9,39.5,2382.2,39.5z M2383.9,34.2c0-1.2-0.5-2-1.7-2c-1.2,0-1.8,0.7-1.8,2v2.3c0,1.2,0.5,1.9,1.8,1.9
				c1.2,0,1.7-0.7,1.7-1.9V34.2z M2383.9,47.3h-1.3l7.5-16h1.3L2383.9,47.3z M2391.9,47.4c-1.7,0-3-1.2-3-3v-2.4c0-1.8,1.3-3,3-3
				c1.7,0,3,1.2,3,3v2.4C2394.9,46.2,2393.6,47.4,2391.9,47.4z M2393.6,42.1c0-1.2-0.5-2-1.8-2c-1.2,0-1.7,0.7-1.7,2v2.3
				c0,1.2,0.5,2,1.7,2c1.2,0,1.8-0.8,1.8-2V42.1z"/>
		</g>
	</g>
</g>
<polygon fill="none" stroke="#FAFAFA" stroke-linejoin="round" stroke-miterlimit="10" points="2393.9,69.1 2386.3,77.5 
	2378.6,69.1 2367.8,72.6 2365.3,61.5 2354.2,59 2357.7,48.2 2349.3,40.5 2357.7,32.9 2354.2,22 2365.3,19.6 2367.8,8.5 2378.6,12 
	2386.3,3.5 2393.9,12 2404.8,8.5 2407.2,19.6 2418.3,22 2414.8,32.9 2423.3,40.5 2414.8,48.2 2418.3,59 2407.2,61.5 2404.8,72.6 "/>
<g>
</g>
<g>
</g>
<g>
</g>
<g>
</g>
<g>
</g>
<g>
</g>
</svg>
